<svg xmlns="http://www.w3.org/2000/svg" xmlns:xlink="http://www.w3.org/1999/xlink" height="55" id="Ebene_1" style="enable-background:new 0 0 263.5 84.3;" version="1.1" viewBox="0 0 263.5 84.3" width="175" x="0px" xml:space="preserve" y="0px">
<style type="text/css">
	.st0{fill-rule:evenodd;clip-rule:evenodd;fill:#FFFFFF;}
	.st1{fill-rule:evenodd;clip-rule:evenodd;fill:#189CD8;}
	.st2{fill-rule:evenodd;clip-rule:evenodd;fill:#1D1D1B;}
</style>
<g id="Gruppe_1410">
	<path class="st0" d="M41.7,1.6L41.9,2c2,3.5,1.9,9.5,1.9,14.7V18l-0.3,0.1c-2.9,1.3-4.6,2.1-9.9,2.1   c-5.4,0-7.1-0.8-10-2.1l-0.5-0.2v-1.2c0-5.2,0-11.2,1.9-14.7l0.2-0.4H3.6L3.8,2c2,3.5,2,9.5,1.9,14.7v50.4c0,5.2,0,11.2-1.9,14.7   l-0.2,0.4h21.6l-0.2-0.4c-2-3.5-2-9.5-1.9-14.7v-5.4c3,2.5,6.5,4.3,10.3,5.1l0.2,0l0.1,0c3.7-0.8,7.2-2.5,10.1-4.9v5.3   c0,5.2,0,11.2-1.9,14.7l-0.2,0.4h21.6l-0.2-0.4c-2-3.5-1.9-9.5-1.9-14.7V16.7c0-5.2,0-11.2,1.9-14.7l0.2-0.4L41.7,1.6z" id="Pfad_3153"/>
	<path class="st1" d="M44.9,32.5c0.2-2.1,0.5-4.2,1.1-6.2l0-0.2L45.9,26l-2-2.5l-0.2-0.2l-0.2,0.1   c-2.3,1-4.8,1.5-7.3,1.5v7.6L44.9,32.5z" id="Pfad_3154"/>
	<path class="st1" d="M36.2,60.8c8.7-3.7,12.5-13.4,12.9-16.7l0-0.2L49,43.7c-1.5-1.4-2.7-3-3.4-4.9h-9.3V60.8z" id="Pfad_3155"/>
	<path class="st1" d="M21.6,38.8c-0.8,1.9-1.9,3.6-3.4,4.9L18,43.9v0.2c0.4,3.3,4.3,13.1,13,16.8v-22H21.6z" id="Pfad_3156"/>
	<path class="st1" d="M23.2,23.5l-2,2.5l-0.1,0.1l0.1,0.2c0.5,2,0.9,4.1,1,6.2h8.8v-7.6c-2.6,0-5.1-0.5-7.5-1.5   l-0.2-0.1L23.2,23.5z" id="Pfad_3157"/>
	<path class="st2" d="M53.2,42.4L53.2,42.4 M66.9,0C66.9,0,67,0,66.9,0C67,0,67,0,66.9,0c0.1,0.3-0.1,0.6-0.3,0.7   c-3.6,1.6-3.8,8.4-3.8,14.7v53.1c0,6.4,0.2,13.1,3.8,14.7c0.2,0.1,0.4,0.4,0.4,0.7l0,0H38.1v0c0-0.3,0.1-0.5,0.4-0.7   c3.6-1.6,3.8-8.3,3.8-14.7v-5.4c0.2-0.1,0.4-0.3,0.6-0.4c-2.7,2-5.8,3.4-9.1,4.1l-0.1,0l-0.2,0c-3.1-0.7-6.1-2-8.7-3.8v5.5   c0,6.4,0.2,13.1,3.8,14.7c0.2,0.1,0.4,0.4,0.3,0.7v0H0v0c0-0.3,0.1-0.5,0.3-0.7c3.6-1.6,3.8-8.3,3.8-14.7V15.4   c0-6.3-0.2-13.1-3.8-14.7C0,0.6,0,0.2,0,0v0h28.9v0c0,0.2,0,0.6-0.3,0.7c-3.6,1.6-3.8,8.4-3.8,14.7v3.2c2.3,1,4.2,1.6,8.9,1.6   c4.5,0,6.4-0.6,8.6-1.5v-3.3C42.2,9,42,2.3,38.4,0.7C38.2,0.6,38,0.3,38.1,0v0H66.9z M43.5,62.2c0.1-0.1,0.3-0.2,0.4-0.3   C43.7,62,43.6,62.1,43.5,62.2 M43.8,61.9v5.3c0,5.2,0,11.2-1.9,14.7l-0.2,0.4h21.6l-0.2-0.4c-2-3.5-1.9-9.5-1.9-14.7V16.7   c0-5.2,0-11.2,1.9-14.7l0.2-0.4H41.7L41.9,2c2,3.5,1.9,9.5,1.9,14.7V18l0.7-0.3l0.5-0.2l0.4,0.4l6,6.4l0.3,0.3l-0.1,0.4L51.3,26   c-1,3.1-1.7,5.7-1.2,9.1c0.6,3.5,1.8,4.5,3.8,6l0.6,0.5l0.3,0.3l0,0.4C54.8,42.4,52.8,54.5,43.8,61.9 M23.1,17.9v-1.2   c0-5.2,0-11.2,1.9-14.7l0.2-0.4H3.6L3.8,2c2,3.5,2,9.5,1.9,14.7v50.4c0,5.2,0,11.2-1.9,14.7l-0.2,0.4h21.6l-0.2-0.4   c-2-3.5-2-9.5-1.9-14.7v-5.4l0,0c-8.8-7.4-10.7-19.3-10.7-19.5l-0.1-0.4l0.4-0.3l0.6-0.5c1.9-1.5,3.2-2.5,3.8-6   c0.5-3.3-0.3-6-1.2-9.1L15.5,25l-0.1-0.4l0.3-0.3l6-6.4l0.4-0.4l0.5,0.2L23.1,17.9z M23.3,61.9c0.1,0.1,0.2,0.2,0.3,0.3   C23.6,62.1,23.4,62,23.3,61.9 M24.5,62.8l0.2,0.1L24.5,62.8 M36.2,25.1v7.4h8.5c0.2-2.1,0.5-4.2,1.1-6.2v0c0,0-2-2.6-2-2.7   c0,0,0,0-0.1,0C41.3,24.6,38.8,25.1,36.2,25.1 M45.2,32.5h3.2c0.2-2.4,0.6-4.7,1.4-6.9l0.2-0.6l-5.3-5.6l-0.5,0.2   c-2.5,1.3-5.2,2-7.9,2.1v2.9c2.5,0,4.9-0.5,7.2-1.5l0.5-0.2l2.4,3.2l-0.1,0.3C45.7,28.4,45.4,30.4,45.2,32.5 M45.3,38.8h-9.1v21.7   c8.5-3.7,12.3-13.2,12.6-16.5c0,0,0-0.1,0-0.1c0,0,0,0-0.1,0C47.3,42.5,46.1,40.8,45.3,38.8 M36.2,61.1c8.8-3.7,12.8-13.6,13.1-17   l0-0.3l-0.2-0.2c-1.4-1.3-2.6-2.9-3.3-4.8h3.8c0.8,1.4,1.9,2.6,3.3,3.5l0.2,0.2l0,0l0,0c-0.7,4.3-5.1,17.6-16.9,22V61.1z    M31.1,60.6V38.8h-9.2c-0.8,2-2,3.7-3.5,5.1c0,0,0,0,0,0c0,0,0,0,0,0V44C18.6,47.3,22.5,56.9,31.1,60.6 M21.3,38.8h-3.8   c-0.8,1.4-2,2.6-3.3,3.5L14,42.5l0,0c0.7,4.3,5.1,17.7,17.1,22v-3.4c-8.9-3.7-12.9-13.7-13.3-17l0-0.3l0.2-0.2   C19.4,42.2,20.6,40.6,21.3,38.8 M22.5,32.5h8.6v-7.4c-2.6,0-5.1-0.5-7.5-1.5c0,0-0.1,0-0.1,0l-0.1,0.1c0,0-2,2.6-2,2.6v0   C21.9,28.3,22.3,30.4,22.5,32.5 M31.1,24.6v-2.8c-2.8-0.1-5.6-0.9-8.1-2.2l-0.5-0.2l-5.4,5.6l0.2,0.6c0.8,2.2,1.3,4.6,1.5,6.9H22   c-0.2-2.1-0.5-4.1-1-6.1l-0.1-0.3l2.4-3.2l0.4,0.2C26,24.1,28.5,24.6,31.1,24.6 M33.6,65.3C33.5,65.3,33.6,65.3,33.6,65.3   c0.6-0.1,1.2-0.3,1.9-0.5V38h13.8c-0.3-0.9-0.6-1.8-0.7-2.7c-0.1-0.7-0.2-1.4-0.2-2.1H35.5V21.8c-0.6,0-1.2,0-1.9,0   c-0.6,0-1.2,0-1.8,0v11.5h-13c0,0.7-0.1,1.4-0.2,2.1c-0.1,0.9-0.4,1.8-0.7,2.7h14l0,26.7C32.4,65,33,65.1,33.6,65.3" id="Pfad_3158"/>
	<path class="st2" d="M19.5,37.2c0.3-1,0.4-2,0.4-3h12.5v-11H35v11h12.3c0,1,0.1,2,0.4,3H35v26.6l-1.4,0.4l-1.2-0.4   V37.2H19.5z M20.5,36.4h12.7V63l0.4,0.1l0.6-0.1V36.4h12.5c-0.1-0.5-0.2-0.9-0.2-1.4H34.2V24h-1l0,11H20.7   C20.7,35.5,20.6,35.9,20.5,36.4" id="Pfad_3159"/>
	<path class="st0" d="M72.4,38.3h3.2v10.3h12.6V38.3h3.2v23.9h-3.2v-11H75.5v11h-3.2V38.3z" id="Pfad_3160"/>
	<path class="st0" d="M115,53.5c0,6-3.5,9.2-9.4,9.2c-6.2,0-9.8-2.9-9.8-9.2V38.3h3.2v15.3c0,4.2,2.4,6.5,6.6,6.5   c4,0,6.2-2.3,6.2-6.5V38.3h3.2L115,53.5z M100.7,32.9h3v3.5h-3V32.9z M107,32.9h3v3.5h-3V32.9z" id="Pfad_3161"/>
	<path class="st0" d="M120,38.3h3.4L136,57.7h0.1V38.3h3v23.9h-3.5L123.1,43h-0.1v19.2h-3V38.3z" id="Pfad_3162"/>
	<path class="st0" d="M144.9,38.3h15.7v2.7h-12.5v7.6h11v2.7h-11v11h-3.2V38.3z" id="Pfad_3163"/>
	<path class="st0" d="M163.2,38.3h16.5v2.7h-13.3v7.6h12.4v2.7h-12.4v8.3h13.4v2.7h-16.6V38.3z" id="Pfad_3164"/>
	<path class="st0" d="M184,38.3h3.2v21.2h10.7v2.7H184V38.3z" id="Pfad_3165"/>
	<path class="st0" d="M203.1,59.5h5.3c2.2,0,8-0.6,8-9.4c0-5.7-2.1-9.1-8-9.1h-5.4V59.5z M199.9,38.3h8.2   c7.4,0,11.5,3.7,11.5,11.4c0,8-3.5,12.5-11.5,12.5h-8.2V38.3z" id="Pfad_3166"/>
	<path class="st0" d="M72.4,70.6h1.7v6.5l6.6-6.5h2.5L77.7,76l5.7,7.9H81l-4.7-6.6l-2.2,2v4.6h-1.7V70.6z" id="Pfad_3167"/>
	<path class="st0" d="M93.1,81c0.7-1.2,1.1-2.5,1-3.9c0.1-1.4-0.4-2.7-1.2-3.7c-0.8-1-2.1-1.5-3.4-1.4   c-1.3,0-2.5,0.5-3.4,1.4c-1.6,2.4-1.7,5.5-0.2,7.9c0.9,1.1,2.2,1.6,3.6,1.5C91.1,82.7,92.4,82.1,93.1,81 M94.7,72.5   c0.9,1.3,1.4,2.9,1.3,4.5c0.1,1.8-0.5,3.5-1.5,4.9c-2.5,2.8-6.7,3.1-9.5,0.6c-0.1-0.1-0.2-0.2-0.3-0.3c-1.1-1.4-1.6-3.2-1.6-4.9   c0-1.6,0.4-3.2,1.4-4.6c1.1-1.6,3.1-2.6,5.1-2.5C91.5,70.1,93.5,71,94.7,72.5" id="Pfad_3168"/>
	<path class="st0" d="M98,70.6h2.1l6.6,10.7V70.6h1.7v13.2h-2l-6.7-10.7v10.7H98L98,70.6z" id="Pfad_3169"/>
	<path class="st0" d="M117.2,76.7c0.7,0,1.4-0.1,1.9-0.5c0.5-0.4,0.8-1.1,0.7-1.8c0.1-0.8-0.3-1.5-1-1.9   c-0.4-0.2-0.9-0.3-1.4-0.3h-4.2v4.6L117.2,76.7z M111.3,70.6h6c0.8,0,1.7,0.1,2.5,0.5c1.2,0.6,1.9,1.8,1.8,3.1   c0,0.7-0.2,1.3-0.5,1.9c-0.3,0.5-0.8,0.9-1.4,1.2c0.5,0.2,0.8,0.5,1.1,0.9c0.3,0.5,0.5,1.1,0.5,1.6l0,1.8c0,0.4,0.1,0.8,0.1,1.1   c0.1,0.3,0.3,0.6,0.6,0.8v0.3h-2.2c-0.1-0.1-0.1-0.3-0.1-0.4c-0.1-0.3-0.1-0.7-0.1-1l-0.1-2.2c0-0.7-0.3-1.4-0.9-1.7   c-0.5-0.2-1-0.2-1.6-0.2h-3.9v5.6h-1.8L111.3,70.6z" id="Pfad_3170"/>
	<path class="st0" d="M131.4,78.5l-2-5.9l-2.1,5.9H131.4z M128.5,70.6h2l4.8,13.2h-2l-1.4-4h-5.2l-1.4,4h-1.9   L128.5,70.6z" id="Pfad_3171"/>
	<path class="st0" d="M141.7,82.4c0.5,0,1-0.1,1.5-0.2c0.7-0.2,1.3-0.7,1.7-1.4c0.4-0.6,0.6-1.3,0.8-2   c0.1-0.5,0.1-0.9,0.1-1.4c0.1-1.3-0.2-2.7-0.9-3.8c-0.7-1-1.9-1.5-3.1-1.4h-3.1v10.2H141.7z M136.8,70.6h5.3c1.6-0.1,3.2,0.7,4.2,2   c0.9,1.3,1.4,2.9,1.3,4.5c0,1.3-0.2,2.6-0.8,3.8c-0.8,1.9-2.7,3.1-4.7,3l-5.2,0V70.6z" id="Pfad_3172"/>
	<path class="st0" d="M154.2,82.4l8.1-10.2h-7.6v-1.6h9.9v1.5l-8.2,10.2h8.2v1.5h-10.5L154.2,82.4z" id="Pfad_3173"/>
	<path class="st0" d="M168.1,70.6v8.2c0,0.8,0.2,1.7,0.6,2.4c0.5,1,1.6,1.5,2.7,1.5c1.3,0.1,2.5-0.5,3.1-1.6   c0.3-0.7,0.5-1.5,0.4-2.3v-8.2h1.8v7.5c0.1,1.3-0.2,2.6-0.6,3.7c-0.8,1.6-2.4,2.4-4.6,2.4c-2.2,0-3.8-0.8-4.6-2.4   c-0.5-1.2-0.7-2.5-0.6-3.7v-7.5L168.1,70.6z" id="Pfad_3174"/>
	<path class="st0" d="M180.3,79.6c0,0.6,0.2,1.3,0.5,1.8c0.7,1,1.9,1.5,3,1.3c0.6,0,1.2-0.1,1.7-0.3   c0.9-0.2,1.6-1.1,1.5-2c0.1-0.6-0.2-1.2-0.6-1.5c-0.6-0.4-1.3-0.7-2.1-0.8l-1.7-0.4c-0.8-0.1-1.6-0.4-2.4-0.9   c-0.8-0.6-1.3-1.5-1.2-2.5c0-1.1,0.4-2.2,1.2-2.9c0.9-0.8,2.2-1.2,3.4-1.1c1.2,0,2.4,0.3,3.4,1c1,0.8,1.5,2,1.4,3.2h-1.7   c0-0.6-0.2-1.1-0.5-1.6c-1.3-1.2-3.3-1.4-4.9-0.4c-0.4,0.4-0.6,1-0.6,1.6c0,0.6,0.3,1.1,0.8,1.4c0.7,0.3,1.5,0.6,2.3,0.7l1.8,0.4   c0.7,0.1,1.4,0.4,2,0.8c0.8,0.6,1.3,1.7,1.2,2.7c0.1,1.3-0.5,2.5-1.6,3.1c-1.1,0.6-2.4,1-3.6,0.9c-1.4,0.1-2.7-0.4-3.7-1.2   c-0.9-0.9-1.4-2.1-1.4-3.4L180.3,79.6z" id="Pfad_3175"/>
	<path class="st0" d="M191.3,70.6h9.6v1.6h-7.9v4h7.2v1.5h-7.2v4.5h8v1.5h-9.7L191.3,70.6z" id="Pfad_3176"/>
	<path class="st0" d="M209.8,79.6c0,0.6,0.2,1.3,0.5,1.8c0.7,0.9,1.8,1.4,3,1.3c0.6,0,1.2-0.1,1.8-0.3   c0.9-0.2,1.6-1.1,1.5-2c0.1-0.6-0.2-1.2-0.6-1.5c-0.6-0.4-1.3-0.7-2.1-0.8l-1.7-0.4c-0.8-0.1-1.7-0.4-2.4-0.9   c-0.8-0.6-1.3-1.5-1.2-2.5c0-1.1,0.4-2.2,1.2-2.9c0.9-0.8,2.2-1.2,3.4-1.1c1.2,0,2.4,0.3,3.5,1c1,0.8,1.5,2,1.4,3.2h-1.7   c0-0.6-0.2-1.1-0.5-1.6c-0.7-0.8-1.7-1.1-2.7-1c-0.8-0.1-1.6,0.2-2.2,0.6c-0.4,0.4-0.7,1-0.7,1.6c0,0.6,0.3,1.1,0.8,1.4   c0.8,0.3,1.5,0.6,2.4,0.7l1.8,0.4c0.7,0.1,1.4,0.4,2,0.8c0.8,0.7,1.3,1.7,1.2,2.7c0.1,1.3-0.5,2.5-1.5,3.1c-1.1,0.6-2.4,1-3.6,0.9   c-1.4,0.1-2.7-0.4-3.8-1.2c-0.9-0.9-1.4-2.1-1.3-3.4H209.8z" id="Pfad_3177"/>
	<path class="st0" d="M229.7,70.6v1.6h-4.5v11.7h-1.8V72.2H219v-1.6H229.7z" id="Pfad_3178"/>
	<path class="st0" d="M236.4,78.5l-2-5.9l-2.1,5.9H236.4z M233.4,70.6h2l4.8,13.2h-2l-1.4-4h-5.2l-1.4,4h-1.9   L233.4,70.6z" id="Pfad_3179"/>
	<path class="st0" d="M246.7,82.4c0.5,0,1-0.1,1.5-0.2c0.7-0.2,1.3-0.7,1.7-1.4c0.4-0.6,0.6-1.3,0.7-2   c0.1-0.5,0.1-0.9,0.1-1.4c0.1-1.3-0.2-2.7-0.9-3.8c-0.7-1-1.9-1.5-3.1-1.4h-3.1v10.2H246.7z M241.8,70.6h5.3c1.6-0.1,3.2,0.7,4.2,2   c0.9,1.3,1.4,2.9,1.3,4.5c0,1.3-0.2,2.6-0.8,3.8c-0.8,1.9-2.7,3.1-4.7,3l-5.2,0L241.8,70.6z" id="Pfad_3180"/>
	<path class="st0" d="M263.5,70.6v1.6H259v11.7h-1.8V72.2h-4.5v-1.6H263.5z" id="Pfad_3181"/>
	<path class="st1" d="M243.3,61.8c-4.1-0.9-7.7-3.3-10-6.9c-4.9-7.6-2.7-17.6,4.8-22.6c3.5-2.3,7.8-3.1,11.9-2.2   c7.4,1.6,12.7,8.2,12.6,15.8c0,1.1-0.1,2.3-0.4,3.4C260.5,58,252,63.6,243.3,61.8 M237.7,31.7c-7.9,5.2-10.1,15.7-5,23.7   c2.4,3.7,6.2,6.3,10.5,7.2c9.2,1.8,18.1-4.2,19.9-13.4c1.8-9-3.9-17.8-12.9-19.8C245.9,28.5,241.4,29.3,237.7,31.7" id="Pfad_3182"/>
	<path class="st1" d="M244.9,51.8l0.1-0.3l13.9-8.3l1.2-5.2l-21.2-5.1l-0.6,2.5l11.6,2.8l-0.1,0.2l-16.2,9.1   l-1.1,4.6l24.1,5.8l0.8-3.1L244.9,51.8z" id="Pfad_3183"/>
	<path class="st1" d="M239.9,40.7l-2.4-0.5l0.6-2.5l-0.7-0.1l-0.6,2.4l-2.5-0.6l-0.2,0.7l2.5,0.6l-0.6,2.4l0.7,0.2   l0.6-2.5l2.4,0.6L239.9,40.7z" id="Pfad_3184"/>
	<path class="st1" d="M258.8,50.4l-0.2,0.8l-6.4-1.5l0.2-0.7L258.8,50.4z" id="Pfad_3185"/>
</g>
</svg>